<svg width="162" height="156" viewBox="0 0 162 156" fill="none" xmlns="http://www.w3.org/2000/svg">
<g clip-path="url(#clip0_36_15)">
<path d="M133.324 9.21586C132.872 7.28868 131.613 5.7445 129.771 4.86559L125.746 2.94757C125.51 2.50354 124.954 2 123.646 2C123.11 2 122.493 2.08545 121.81 2.25177L82.2307 11.9029C78.4239 12.8322 73.8593 16.4195 72.0542 19.9016L42.8786 76.1926C42.0111 77.865 41.8998 79.3924 42.5661 80.4879C43.2918 81.6827 44.8804 82.2213 46.9202 81.9436L51.7516 81.2936C53.5048 81.0601 54.8785 81.492 55.4944 82.47C56.0646 83.3734 55.9914 84.681 55.2901 86.152L29.3527 141.038C28.5568 142.707 28.4638 142.782 28.5096 144.308H28.5431V143.479C28.5431 143.488 28.4989 143.497 28.5004 143.507L29.3984 148.724C29.8176 152.375 31.67 153.484 32.7418 153.823C33.0543 153.918 33.4507 154 33.9233 154C35.0865 154 36.6736 153.51 38.3949 151.549L105.122 75.5426C106.868 73.5559 107.621 71.1374 107.188 68.9035C106.805 66.9138 105.546 65.2872 103.643 64.3228L99.533 62.2385C99.2449 61.6525 98.5131 60.9812 96.6608 60.9812C96.5342 60.9812 96.3848 61.001 96.2476 61.0071L131.547 16.0472C133.199 13.9445 133.845 11.4558 133.324 9.21586ZM103.096 69.6954C103.279 70.6506 102.876 71.7798 101.989 72.7899L35.2588 148.791C34.6414 149.493 34.181 149.744 33.9843 149.808C33.8577 149.644 33.6214 149.175 33.5147 148.246C33.5147 148.246 32.5908 142.774 32.6732 140.749L98.1243 66.2012L101.759 68.0444C102.497 68.4183 102.959 68.9889 103.096 69.6954ZM128.268 13.47L90.4497 61.6403L86.6123 62.0798C84.9048 62.2751 83.6882 61.9287 83.3071 61.146C82.9473 60.4013 83.3147 59.2417 84.3148 57.966L124.39 6.924L127.978 8.6345C128.669 8.96409 129.102 9.48136 129.265 10.168C129.497 11.1659 129.134 12.3683 128.268 13.47Z" fill="white"/>
</g>
<defs>
<clipPath id="clip0_36_15">
<rect width="105" height="152" fill="white" transform="translate(28.5 2)"/>
</clipPath>
</defs>
</svg>
