<svg width="1247" height="459" viewBox="0 0 1247 459" fill="none" xmlns="http://www.w3.org/2000/svg">
<g clip-path="url(#clip0_40_23)">
<g clip-path="url(#clip1_40_23)">
<path d="M315.469 21.79C314.111 15.9704 310.321 11.3074 304.778 8.65334L292.666 2.86141C291.954 1.52055 290.28 0 286.343 0C284.732 0 282.874 0.258033 280.819 0.760277L161.704 29.9042C150.247 32.7103 136.51 43.5431 131.078 54.058L43.2728 224.042C40.6621 229.092 40.3271 233.705 42.3322 237.013C44.5162 240.621 49.2971 242.247 55.4361 241.409L69.9762 239.446C75.2527 238.741 79.3867 240.045 81.2403 242.998C82.9563 245.726 82.736 249.675 80.6255 254.117L2.56607 419.857C0.171021 424.898 -0.108863 425.124 0.0287839 429.732H0.129726V427.23C0.129726 427.257 -0.00333167 427.285 0.00125655 427.313L2.70372 443.066C3.96548 454.093 9.54017 457.443 12.7657 458.466C13.7063 458.751 14.8992 459 16.3216 459C19.8224 459 24.5987 457.521 29.7788 451.6L230.596 222.079C235.85 216.08 238.116 208.777 236.813 202.031C235.661 196.022 231.872 191.111 226.145 188.199L213.776 181.904C212.908 180.135 210.706 178.108 205.131 178.108C204.751 178.108 204.301 178.167 203.888 178.186L310.124 42.4189C315.093 36.0694 317.038 28.5542 315.469 21.79ZM224.498 204.422C225.049 207.307 223.838 210.717 221.167 213.767L20.3408 443.269C18.4826 445.389 17.097 446.149 16.5051 446.343C16.1243 445.845 15.4131 444.43 15.0919 441.624C15.0919 441.624 12.3115 425.101 12.5592 418.986L209.536 193.871L220.474 199.437C222.695 200.566 224.085 202.289 224.498 204.422ZM300.254 34.6364L186.439 180.098L174.89 181.425C169.752 182.015 166.09 180.969 164.943 178.605C163.86 176.357 164.966 172.855 167.976 169.003L288.582 14.8692L299.383 20.0345C301.461 21.0297 302.764 22.5917 303.255 24.6652C303.953 27.6787 302.861 31.3096 300.254 34.6364Z" fill="#FD7014"/>
</g>
<g filter="url(#filter0_d_40_23)">
<path d="M327.426 356.5V98.6875H380.453L404.184 222.174V98.6875H453.988V356.5H403.598L377.816 227.594V356.5H327.426ZM497.055 356.5L469.369 98.6875H519.76L533.969 261.432L548.471 98.6875H596.518L610.287 261.432L624.057 98.6875H675.033L646.908 356.5H585.092L572.201 232.428L559.896 356.5H497.055ZM750.473 358.844C731.82 358.844 716.781 353.033 705.355 341.412C694.027 329.791 688.363 313.531 688.363 292.633V173.688C688.363 148.688 693.295 129.547 703.158 116.266C713.119 102.984 729.281 96.3438 751.645 96.3438C763.852 96.3438 774.691 98.5898 784.164 103.082C793.734 107.574 801.254 114.313 806.723 123.297C812.191 132.184 814.926 143.414 814.926 156.988V201.52H763.656V163.434C763.656 155.719 762.68 150.543 760.727 147.906C758.773 145.172 755.746 143.805 751.645 143.805C746.859 143.805 743.637 145.562 741.977 149.078C740.316 152.496 739.486 157.086 739.486 162.848V291.9C739.486 299.029 740.512 304.059 742.562 306.988C744.711 309.918 747.738 311.383 751.645 311.383C756.039 311.383 759.115 309.576 760.873 305.963C762.729 302.35 763.656 297.662 763.656 291.9V245.465H815.512V294.244C815.512 316.9 809.799 333.355 798.373 343.609C786.947 353.766 770.98 358.844 750.473 358.844ZM832.797 356.5V98.6875H900.912C915.17 98.6875 926.449 101.861 934.75 108.209C943.148 114.557 949.154 123.59 952.768 135.309C956.381 147.027 958.188 160.992 958.188 177.203C958.188 192.828 956.674 206.451 953.646 218.072C950.619 229.596 945.199 238.531 937.387 244.879C929.672 251.227 918.686 254.4 904.428 254.4H883.48V356.5H832.797ZM883.48 208.111H886.41C895.98 208.111 901.84 205.426 903.988 200.055C906.137 194.684 907.211 186.773 907.211 176.324C907.211 166.559 906.137 159.039 903.988 153.766C901.938 148.395 897.006 145.709 889.193 145.709H883.48V208.111ZM1013.71 358.844C1001.5 358.844 992.172 356.012 985.727 350.348C979.379 344.684 975.033 336.92 972.689 327.057C970.346 317.193 969.174 306.012 969.174 293.512C969.174 280.133 970.492 269.195 973.129 260.699C975.766 252.105 980.258 245.074 986.605 239.605C993.051 234.137 1001.89 229.498 1013.12 225.689L1045.64 214.557V191.998C1045.64 180.182 1041.78 174.273 1034.07 174.273C1027.04 174.273 1023.52 179.059 1023.52 188.629V201.812H972.543C972.445 201.031 972.396 200.055 972.396 198.883C972.396 197.613 972.396 196.197 972.396 194.635C972.396 172.76 977.523 157.281 987.777 148.199C998.129 139.02 1014.49 134.43 1036.85 134.43C1048.57 134.43 1059.07 136.529 1068.34 140.729C1077.62 144.83 1084.95 150.934 1090.32 159.039C1095.79 167.145 1098.52 177.154 1098.52 189.068V356.5H1046.37V330.426C1043.83 339.605 1039.63 346.637 1033.77 351.52C1027.91 356.402 1021.22 358.844 1013.71 358.844ZM1034.36 318.121C1038.66 318.121 1041.59 316.314 1043.15 312.701C1044.71 309.088 1045.49 305.182 1045.49 300.982V239.752C1038.27 242.682 1032.65 246.393 1028.65 250.885C1024.64 255.279 1022.64 261.773 1022.64 270.367V298.639C1022.64 311.627 1026.55 318.121 1034.36 318.121ZM1114.49 393.121V359.869H1139.68C1143.49 359.869 1145.39 358.551 1145.39 355.914C1145.39 354.547 1145.25 353.131 1144.96 351.666L1110.53 136.773H1160.78L1175.42 298.492L1192.71 136.773H1243.25L1202.52 367.926C1201.06 376.227 1198.23 382.477 1194.03 386.676C1189.93 390.973 1183.14 393.121 1173.67 393.121H1114.49Z" fill="#FD7014"/>
</g>
</g>
<defs>
<filter id="filter0_d_40_23" x="323.426" y="96.3438" width="923.82" height="304.777" filterUnits="userSpaceOnUse" color-interpolation-filters="sRGB">
<feFlood flood-opacity="0" result="BackgroundImageFix"/>
<feColorMatrix in="SourceAlpha" type="matrix" values="0 0 0 0 0 0 0 0 0 0 0 0 0 0 0 0 0 0 127 0" result="hardAlpha"/>
<feOffset dy="4"/>
<feGaussianBlur stdDeviation="2"/>
<feComposite in2="hardAlpha" operator="out"/>
<feColorMatrix type="matrix" values="0 0 0 0 0 0 0 0 0 0 0 0 0 0 0 0 0 0 0.25 0"/>
<feBlend mode="normal" in2="BackgroundImageFix" result="effect1_dropShadow_40_23"/>
<feBlend mode="normal" in="SourceGraphic" in2="effect1_dropShadow_40_23" result="shape"/>
</filter>
<clipPath id="clip0_40_23">
<rect width="1247" height="459" fill="white"/>
</clipPath>
<clipPath id="clip1_40_23">
<rect width="316" height="459" fill="white"/>
</clipPath>
</defs>
</svg>
