<svg width="499" height="187" viewBox="0 0 499 187" fill="none" xmlns="http://www.w3.org/2000/svg">
<rect x="11" y="16" width="155" height="155" rx="20" fill="#FD7014"/>
<g clip-path="url(#clip0_36_8)">
<path d="M125.872 44.1745C125.546 42.7925 124.634 41.6852 123.301 41.0549L120.388 39.6795C120.217 39.3611 119.814 39 118.867 39C118.48 39 118.033 39.0613 117.539 39.1805L88.8908 46.1014C86.1354 46.7678 82.8315 49.3403 81.525 51.8373L60.4074 92.2039C59.7795 93.4032 59.6989 94.4985 60.1812 95.2841C60.7064 96.1409 61.8563 96.5271 63.3327 96.328L66.8297 95.8619C68.0987 95.6944 69.093 96.0041 69.5388 96.7055C69.9515 97.3533 69.8985 98.291 69.3909 99.3458L50.6172 138.705C50.0411 139.902 49.9738 139.955 50.0069 141.05H50.0312V140.455C50.0312 140.462 49.9992 140.469 50.0003 140.475L50.6503 144.216C50.9537 146.835 52.2945 147.63 53.0702 147.873C53.2964 147.941 53.5834 148 53.9254 148C54.7674 148 55.9161 147.649 57.162 146.243L105.46 91.7378C106.723 90.3131 107.268 88.5788 106.955 86.9769C106.678 85.55 105.767 84.3836 104.389 83.692L101.414 82.1973C101.206 81.7772 100.676 81.2957 99.3354 81.2957C99.2438 81.2957 99.1357 81.3099 99.0364 81.3143L124.587 49.0733C125.782 47.5655 126.25 45.7808 125.872 44.1745ZM103.993 87.5448C104.126 88.2297 103.834 89.0394 103.192 89.7638L54.8921 144.264C54.4452 144.768 54.1119 144.948 53.9696 144.994C53.878 144.876 53.7069 144.54 53.6297 143.874C53.6297 143.874 52.961 139.95 53.0206 138.498L100.395 85.039L103.025 86.3608C103.56 86.6289 103.894 87.0381 103.993 87.5448ZM122.213 47.2252L94.8398 81.7684L92.0623 82.0835C90.8263 82.2236 89.9458 81.9752 89.6699 81.4139C89.4095 80.8799 89.6754 80.0483 90.3993 79.1335L119.406 42.531L122.003 43.7576C122.503 43.994 122.817 44.3649 122.935 44.8573C123.102 45.5729 122.84 46.4352 122.213 47.2252Z" fill="white"/>
</g>
<path d="M193.656 134V51.5H210.625L218.219 91.0156V51.5H234.156V134H218.031L209.781 92.75V134H193.656ZM247.938 134L239.078 51.5H255.203L259.75 103.578L264.391 51.5H279.766L284.172 103.578L288.578 51.5H304.891L295.891 134H276.109L271.984 94.2969L268.047 134H247.938ZM329.031 134.75C323.062 134.75 318.25 132.891 314.594 129.172C310.969 125.453 309.156 120.25 309.156 113.562V75.5C309.156 67.5 310.734 61.375 313.891 57.125C317.078 52.875 322.25 50.75 329.406 50.75C333.312 50.75 336.781 51.4688 339.812 52.9062C342.875 54.3438 345.281 56.5 347.031 59.375C348.781 62.2188 349.656 65.8125 349.656 70.1562V84.4062H333.25V72.2188C333.25 69.75 332.938 68.0938 332.312 67.25C331.688 66.375 330.719 65.9375 329.406 65.9375C327.875 65.9375 326.844 66.5 326.312 67.625C325.781 68.7188 325.516 70.1875 325.516 72.0312V113.328C325.516 115.609 325.844 117.219 326.5 118.156C327.188 119.094 328.156 119.562 329.406 119.562C330.812 119.562 331.797 118.984 332.359 117.828C332.953 116.672 333.25 115.172 333.25 113.328V98.4688H349.844V114.078C349.844 121.328 348.016 126.594 344.359 129.875C340.703 133.125 335.594 134.75 329.031 134.75ZM355.375 134V51.5H377.172C381.734 51.5 385.344 52.5156 388 54.5469C390.688 56.5781 392.609 59.4688 393.766 63.2188C394.922 66.9688 395.5 71.4375 395.5 76.625C395.5 81.625 395.016 85.9844 394.047 89.7031C393.078 93.3906 391.344 96.25 388.844 98.2812C386.375 100.312 382.859 101.328 378.297 101.328H371.594V134H355.375ZM371.594 86.5156H372.531C375.594 86.5156 377.469 85.6562 378.156 83.9375C378.844 82.2188 379.188 79.6875 379.188 76.3438C379.188 73.2188 378.844 70.8125 378.156 69.125C377.5 67.4062 375.922 66.5469 373.422 66.5469H371.594V86.5156ZM413.266 134.75C409.359 134.75 406.375 133.844 404.312 132.031C402.281 130.219 400.891 127.734 400.141 124.578C399.391 121.422 399.016 117.844 399.016 113.844C399.016 109.562 399.438 106.062 400.281 103.344C401.125 100.594 402.562 98.3438 404.594 96.5938C406.656 94.8438 409.484 93.3594 413.078 92.1406L423.484 88.5781V81.3594C423.484 77.5781 422.25 75.6875 419.781 75.6875C417.531 75.6875 416.406 77.2188 416.406 80.2812V84.5H400.094C400.062 84.25 400.047 83.9375 400.047 83.5625C400.047 83.1562 400.047 82.7031 400.047 82.2031C400.047 75.2031 401.688 70.25 404.969 67.3438C408.281 64.4062 413.516 62.9375 420.672 62.9375C424.422 62.9375 427.781 63.6094 430.75 64.9531C433.719 66.2656 436.062 68.2188 437.781 70.8125C439.531 73.4062 440.406 76.6094 440.406 80.4219V134H423.719V125.656C422.906 128.594 421.562 130.844 419.688 132.406C417.812 133.969 415.672 134.75 413.266 134.75ZM419.875 121.719C421.25 121.719 422.188 121.141 422.688 119.984C423.188 118.828 423.438 117.578 423.438 116.234V96.6406C421.125 97.5781 419.328 98.7656 418.047 100.203C416.766 101.609 416.125 103.688 416.125 106.438V115.484C416.125 119.641 417.375 121.719 419.875 121.719ZM445.516 145.719V135.078H453.578C454.797 135.078 455.406 134.656 455.406 133.812C455.406 133.375 455.359 132.922 455.266 132.453L444.25 63.6875H460.328L465.016 115.438L470.547 63.6875H486.719L473.688 137.656C473.219 140.312 472.312 142.312 470.969 143.656C469.656 145.031 467.484 145.719 464.453 145.719H445.516Z" fill="white"/>
<defs>
<clipPath id="clip0_36_8">
<rect width="76" height="109" fill="white" transform="translate(50 39)"/>
</clipPath>
</defs>
</svg>
